<?xml version="1.0" encoding="UTF-8"?>
<svg id="Ebene_1" data-name="Ebene 1" xmlns="http://www.w3.org/2000/svg" viewBox="0 0 283.46 133.23">
  <defs>
    <style>
      .cls-1 {
        fill: #d70029;
      }

      .cls-2 {
        fill: #181716;
      }
    </style>
  </defs>
  <g>
    <path class="cls-2" d="m237.2,75.74s-.28.44-.82.47-.99-.05-1.67-.79c-.68-.74-1.27-1.42-1.51-1.5,0,0,.01-.27-.06-.45,0,0,.43.11.73.05,0,0-.5-.55-.66-.9-.17-.34-.52-.72-.52-.72,0,0,.51,0,1.49,1.09.98,1.08,1.19,1.39,1.51,1.75.32.36.86.89,1.51.99m-4.02-1.63s.38.26.65.69c.27.43.38.75.71,1.15.33.4.8.68.8.68,0,0-.14.12-.47.15-.33.03-.53-.04-.53-.04,0,0-.2-.45-.57-.7-.37-.25-.92-.6-1.6-.76,0,0,.23-.45.28-.68,0,0,.53.17.73.32,0,0,.2-.21,0-.81m-.26,1.76c.45.26.8.62.88.81.09.19.02.32-.08.43-.1.11-.23.25-.38,0-.15-.25-.21-.29-.32-.19l-.21-.28-.08.26s-.11-.27-.22-.38c-.1-.11-.21,0-.21,0,0,0-.19-.26-.39-.36,0,0,.18.61.19.9,0,.29-.15.32-.27.34-.12.02-.15.12-.25.11s-.32-.05-.41-.23c-.09-.19-.13-.32-.09-.41.04-.09-.02-.53-.18-.5-.16.03-.09.18-.15.29,0,0-.16-.23-.25-.19s-.02.29-.08.44c0,0-.19-.22-.27-.23-.09-.01-.03.17-.04.27-.01.11-.05.14-.22-.02-.07.03.02.32-.03.41-.05.08-.22.31-.37.33-.15.02-.66-.21-.4-.56.27-.36,1.12-1.33,1.78-1.52,0,0,.2-.7.11-.89,0,0,.59-.03.74.82,0,0,.75.11,1.2.37m-2.59-.4s-.85.52-1.35,1.14c0,0-.34-.31-.62-.49,0,0-.1-.46-.25-.85,0,0,.23-.04.28.02,0,0,.1-.77-.36-1.98,0,0,.09-.46-.21-1.03,0,0,.36.19.47.32,0,0,.07-.63-.33-1.5,0,0,.93.37,1.23.8.3.43.33.84.29,1.12,0,0,.34.21.38.44.04.23.02.63-.01,1s.04.8.51,1.01m-1.94,1.56c.02.24-.07.35-.22.35-.15,0-.45-.13-.54-.28-.08-.15-.14-.32-.33-.23,0,0-.14-.26-.37-.12,0,0-.16-.26-.3-.08.01.07.11.18.05.33-.06.15-.03.19-.05.28-.02.1-.02.29-.38.29-.36,0-.53-.13-.53-.34,0-.21.12-.39.06-.64-.05,0-.17.12-.33.09-.06.02-.05.26-.15.37,0,0-.19-.18-.26-.13-.07.05-.09.33-.35.29-.11.04-.17.43-.35.48-.18.05-.36-.14-.37-.28,0-.13.41-.97,2.19-1.58,0,0-.07-.48.18-.53.17-.03.51.14.55.34.03.2-.05.34.11.36.16.02.33.1.71.32.38.23.67.48.69.71m13.01-5.29s.7-.27.85-.43c0,0-.29-.32-.41-.53-.12-.21-.93-.94-1.99-1.31-.35-.12-.85-.25-1.39-.38l-1.38.26c.52.17,1.06.34,1.52.47,1.6.46,2.71,1.22,3.02,1.28,0,0-.31.59-1.7.51-1.38-.08-2.13-.55-2.77-.99-.36-.25-1.09-.64-1.71-.96l-.48.09c.4.29.95.68,1.55,1.08,1.11.74,1.59,1.15,2.44,1.28.85.13,1.69-.05,1.69-.05,0,0-.31,1.03-1.39,1.18-1.08.15-2.03-.27-3.06-.97l-2.08-1.39s.38-.14.55-.25c.05,0,.47-.05.49-.16.01-.11-.22-.07-.38-.25-.06-.06-.17-.2-.31-.38l-.5.1c.1.1.18.19.23.28,0,0-.39.46-1.39.02-.05-.02-.1-.05-.15-.07l-.82.16c.36.33,1.04.76,2.04.61l2.55,1.99c1.03.8,2.66.99,2.74.98,0,0-.29,1-1.16,1.15-.86.14-1.5-.14-2.13-.84-.63-.7-1.14-1.22-2.03-1.96-.89-.75-1.51-1.19-1.85-1.57-.11-.12-.19-.23-.26-.34l-.42.08c.16.29.31.54.4.65,0,0-.52-.15-.59-.19-.07-.03.21.37.75.81.54.44.71.91.71.91,0,0-.59-.38-.84-.34.12.09.88,1.04.88,1.72,0,0-.59-.28-1.12-.72,0,0,.23.66.14,1.12,0,0-.6-.14-.89-.83,0,0-.2.88-.16,1.2,0,0-.27-.2-.26-.67.01-.47.07-.57,0-.81-.07-.24-.47-.62-.47-.62,0,0,.13-.4-.01-.78-.11-.3-.34-.68-.93-1.02l-1.42.27c.04.09.08.18.11.27,0,0-.12-.1-.31-.24l-.24.05c.16.31.4.8.47,1.17,0,0-.29-.28-.68-.46,0,0,.54,1.07.72,2.05,0,0-.3-.27-.59-.43,0,0,.45,1.3.56,1.81,0,0-.58-.75-.9-.78-.32-.04-.32.07-.48.1-.16.03-.44-.27-.53-.26-.09.01-.08.31-.06.43,0,0-.34-.41-.24-1.24,0,0,.57.4.71.64,0,0,.03-.43-.29-.93-.33-.5-.5-1.06-.45-1.49,0,0,.28.13.64.01,0,0-.19-.1-.41-.32l-1.13.21c.02.36.13.86.49,1.35,0,0-.65,2.22.77,2.72,0,0-.63.18-1.05.46-.42.28-1.12.99-.89,1.42,0,0-.29.32-.2.7.09.38.2.48.45.51,0,0-.05-.22-.03-.34.02-.12.14-.15.18-.24.05-.09.02-.18.19-.22.16-.04.35-.04.46-.1.11-.06.46-.29.59-.44,0,0,.17.17.31.26.14.09.26.19.31.36.05.17.15.65.23.79,0,0,.1-.16.21-.45.1-.29.21-.54.21-.54,0,0,.22-.07.56-.37,0,0,.07.08.22.11.14.03.19-.03.3.09.11.12.17.2.22.37.05.16.15.27.1.46-.05.19-.12.29-.12.29,0,0,.2-.07.29-.22.09-.14.21-.26.25-.55.04-.3.24-.42.33-.33.09.1.19.21.46.3,0,0,.6.85,1.13.55,0,0-.38-.23-.42-.44,0,0,.23-.19.31-.3,0,0,.24.09.51.09.27,0,.47-.07.47-.07,0,0,.15.61.28.78,0,0,.3-.38.44-.88,0,0,.43-.18.57-.41,0,0,.2.18.49.24.29.06.41,0,.41,0,0,0,.19.08.17.29-.02.21-.14.5-.14.5,0,0,.35-.1.44-.26.1-.16.25-.57.24-.85,0,0,.64.17,1.01.06.36-.11.55-.36.6-.47,0,0,.66.06,1.13-.16.47-.22.73-.46.93-.95,0,0,1.87-.28,1.83-1.86,0,0,2.04-1.02,1.77-2.2"/>
    <path class="cls-2" d="m223.55,61.66s.56.52.7.83.65,1.57.65,1.57c0,0-.55-.69-.73-1.09-.17-.39-.23-.64-.39-.87s-.24-.44-.24-.44m3.86.26s.58.33.8.92c.22.6.38,1.2.4,1.41.02.21-.07.12-.24-.07-.17-.18-.72-.54-.98-.88-.25-.33-.83-.8-.97-.95.2,0,1.24.58,1.48.85,0,0,.02-.59-.5-1.29m1.25.52c.11.14.59.73,1.02,2.38s.76,2.06,1.43,3.09c.68,1.03.91,1.44,1.24,1.68.32.25.11.22-.06.12-.17-.1-1.42-1.23-2.22-2.67-1.07-1.92-1.06-3.3-1.23-3.77-.17-.46-.22-.62-.32-.73-.1-.11.02-.25.13-.11m1.96,3.35c.16-.1.42.33.53.57.11.23.31.66.26.69-.06.03-.38-.23-.61-.55-.23-.32-.34-.61-.18-.7m-1.02,1.49c.07-.05.27.03.32.16.05.13.12.31.3.51.17.2.19.4.14.44-.04.04-.3-.08-.43-.26-.13-.18-.19-.41-.24-.56-.05-.15-.17-.23-.1-.28m-8.75-3.19s.2.24.59.62c.39.38.65.7,1.06,1.32.41.63.52,1.09.52,1.09,0,0-.45-.38-.62-.62,0,0-1.04,0-1.79-1.03,0,0,.04-.04.5.21s.84.31.84.31c0,0-.53-1.03-.86-1.47-.33-.45-.22-.43-.22-.43m14.12,5.66c-.33-.24-.55-.41-.6-.44-.09-.07-.22-.19.06-.11.12.04.54.23,1.02.47l-.48.08Zm-3.66.68c-.36-.64-.79-1.49-.82-1.55-.05-.1-.07-.23.02-.14.09.09,1.18.98,2.14,1.45l-.83.15c-.2-.18-.3-.33-.3-.33,0,0,.05.14.2.36l-.42.07Zm-3.81.71c-.46-1-1.33-1.55-1.75-1.77-.46-.24-.82-.63-1.33-1s-.86-.82-.86-.82c0,0,.52.23,1.14.66.61.42,1.13.6,1.13.6,0,0-.31-.66-.52-1.02-.21-.36-.28-.69-.34-.83l-.14-.4s.3.08.61.7c.31.61,1.89,2.91,2.91,3.33.22.09.41.19.58.29l-1.42.27Zm-.44.08c-.09-.17-.16-.29-.16-.29.15.09.29.18.4.26l-.24.04Zm9.32-13.14c0,.28-.05.76-.4.97,0,0,.14.91-.74,1.42,0,0,.1.95-1.04,1.2,0,0-.14.72-.79.86,0,0-.08.69-1.2.87,0,0-.25.84-1.19.35v-.1c.12.04.56-.05.66-.17.1-.12-.55-.41-.87-.59-.32-.19-.17-.18.03-.11.19.07.82.49,1.36.38.54-.12.71-.26.72-.45.01-.2-.34-.12-1.22-.51-.68-.29-.8-.34-.9-.41-.28-.23-.27-.28-.02-.17.25.11.88.4,1.56.55.67.16.9.3,1.18.01.28-.29.34-.39.32-.49-.02-.1,0,.05-.46-.04-.45-.09-1.37-.46-1.53-.6.22-.05,1.17.33,1.73.31.55-.02.81-.09,1.05-.3.24-.21.3-.4.19-.47-.1-.07-.33.1-.71-.09-.38-.19-.97-.4-1.19-.51-.22-.12-.25-.23-.01-.15.24.08.82.29,1.33.38.51.1.73.1,1.08-.32.35-.42.31-.47.23-.58-.08-.11-.31.2-.74.11-.42-.1-1.11-.22-1.29-.34s-.12-.18.04-.13c.16.05.96.32,1.41.23.45-.09.86-.34.96-.69.04-.16.07-.27.05-.32l.41-.08Zm-6.1,1.13c-.83,1.11-2.51.56-2.51.56,0,0,1.33,1.36,2.2,2.56.87,1.2,1.38,2.47,1.38,2.47,0,0,.11.1.37.12.26.02.26-.25.16-.42-.1-.16.13-.02.52.23.39.25.81.05.87-.11.06-.16-.35-.58-.55-.74-.19-.16-.13-.22.07-.1.2.12.85.6,1.27.75.42.16.66,0,.96-.05.29-.05.17-.13-.05-.23-.23-.1-1.1-.96-1.29-1.1-.19-.14-.14-.22.12-.08.27.14,1.38.87,1.82.93.43.06,1-.06.98-.15-.01-.09-.33-.17-.7-.38-.37-.21-1.07-.91-1.17-1.01-.09-.11-.11-.18.03-.1.13.08.72.42,1.45.72.73.3.96.44,1.32.38.35-.06.62-.34.6-.46-.02-.12-.35-.2-.8-.38-.45-.18-1.28-.9-1.47-1.1-.18-.2.03-.16.97.3.94.46,1.86.67,2.23.58.36-.09.64-.51.59-.63s-.54-.18-1.15-.44c-.6-.26-1.32-.88-1.59-1.02-.26-.14-.18-.2.09-.12.27.08,1.72.72,2.56.99.84.27,1.06-.13,1.25-.3.18-.17.06-.28-.11-.31-.17-.03-.59-.08-1.34-.42-.75-.34-1.82-1.11-1.9-1.16-.08-.05-.12-.25.05-.13.17.12,1.67.67,2.87,1.1s1.28-.02,1.54-.38c.26-.36.05-.57-.27-.6-.32-.04-1.08-.3-1.67-.58-.38-.18-1.01-.5-1.43-.72l.39-.08c.29.09.67.22,1.19.42,1.37.51,1.9.51,2.37.37.47-.14.51-.66.57-.84.06-.18-.19-.12-.46-.12-.2,0-.63-.1-1.19-.3l1.29-.24c.08,0,.14,0,.18-.01.04,0,.07-.02.11-.04l1.09-.21c-.21.31-.42.52-.42.52.04,1.24-1.01,1.82-1.01,1.82-.06,1.39-1.11,1.65-1.11,1.65-.06.86-1.26,1.22-1.26,1.22-.35,1.08-1.42,1.13-1.42,1.13-.15,1-1.71,1.09-1.71,1.09-.17.43-1.32.48-1.32.48-.46.65-1.94.54-1.94.54-.31.29-1.33.3-1.33.3-.24.16-.78.08-.78.08.1.23.71,1.11,1.44,1.75.73.64,1.46.73,2.33,1.11.58.25,1.81.51,2.88.77l-1.38.25c-1.26-.41-2.45-.84-2.45-.84,0,0,.24.28.17.34-.07.05-.55.02-.81.04-.26.02-.21.11-.21.11.11.13.43.53.68.84l-.5.09c-.48-.49-1.34-1.06-1.52-1.18-.22-.14-.81-.24-.8-.38,0-.14.67.02.71-.07.04-.1-.32-.4-.45-.59-.12-.19-.16-.4.09-.17.25.23.66.36,1.28.69.61.33.34-.07.05-.31-.28-.24-1.6-1.27-2.17-2.25-.57-.98-1.58-2.84-2.5-4.05-.46-.6-1.03-1.26-1.55-1.83l3.19-.6Zm-23.96,4.45c.24.21.58.38.75.45.17.06.78-.39,1.31-.83l.3-.05c-.53.49-1.17,1.08-1.21,1.22-.07.24.4.85.88.86.48,0,1.78-1.37,1.93-1.55.15-.18.23-.16.12,0-.11.17-1.44,1.51-1.44,1.74,0,.23.01.45.68.55s1.69-1.34,1.77-1.52c.08-.18.17-.32.1.03-.08.34-1.41,1.57-1.41,1.84,0,.27.35.58.85.58.5,0,1.5-1.4,1.61-1.57.11-.17.19-.24.1.03-.09.27-1.21,1.53-1.19,1.8.02.27.05.23.63.58.57.34,1.72-1.8,1.79-2.01.08.3-1.08,1.92-1.09,2.21-.01.29.63.53,1.06.44.42-.09.94-1.68,1.04-1.91.1-.23.23-.34.12.02-.1.36-.67,1.92-.6,2.06.07.14.39.33.78.14.39-.19.94-1.71.99-1.9.06-.19.12-.25.13.05,0,.3-.55,1.66-.47,1.89.08.23.51.23,1.02-.03s.75-1.71.75-1.71c0,0,.18-.47.18.06,0,.63-.48,1.2-.33,1.52.15.32.95.08,1.18-.18.23-.26.33-1.02.35-1.22.03-.2.12-.37.16-.01.04.36-.31,1.03-.21,1.17.29.39.6.07.82-.17.22-.23.27-.81.27-.81.27.27.1.71.16.8.06.09.61.15.82-.14.21-.29-.18-.88-.18-.88l-1.1-.6c-.86.57-1.44-.2-1.44-.2-1.13.28-1.5-.49-1.5-.49-1.15.45-1.49-.67-1.49-.67-1.37.62-1.72-.8-1.72-.8-1.16.53-1.52-.94-1.52-.94-.73.14-1.04-.32-1.18-.71l.47-.09c.08.13.23.23.49.26.29.03.5-.22.66-.47l.31-.06c-.16.35-.38.88-.35,1.08.05.26.35.38.77.46.42.08.96-1.01,1.06-1.14.1-.14.23-.04.15.08s-.05.14-.26.51c-.21.37-.31.57-.27.89.04.33.62.57,1.06.58.44,0,.75-1,.85-1.21s.21-.17.17.03c-.04.2-.31.73-.35,1.15-.04.41.61.68.95.61.34-.07.5-.6.56-.73-.15.82.06.88.45,1.15s.69-.01.77-.1c.11.76.92.51.92.51-1.73-1.12-2.92-3.14-3.53-4.41l.75-.13c.86,1.56,1.95,2.94,2.39,3.36.65.62,2.63,1.93,3.17,2.27s.61.59.61.59c-.26-.2-.95-.32-.95-.32.64,1.31,2.67,2,3.44,2.42.77.43,1.05.96,1.05.96-.69-.52-1.29-.4-1.29-.4.16.38.4.66.6.85l-1.13.21c-.02-.34.03-.55.03-.55-.4-.3-.65-.89-.65-.89-1.37-.59-2.3-1.85-2.3-1.85,0,0-.43.19-.78.31-.34.12-.72-.06-.72-.06,0,0-.43.25-.74.34-.32.08-.56-.03-.56-.03,0,0-.52.25-.84.29-.33.04-.62-.08-.62-.08,0,0-.59.34-1.03.31-.44-.03-.74-.27-.74-.27,0,0-.46.12-.92.02-.45-.1-.77-.37-.77-.37,0,0-.38.08-.78-.07-.4-.14-.72-.53-.72-.53,0,0-.48,0-.82-.19-.33-.2-.5-.56-.5-.56,0,0-.55-.04-.92-.28-.37-.24-.44-.74-.44-.74,0,0-.43-.03-.82-.29-.39-.25-.52-.59-.52-.59,0,0-.49.05-.96-.41-.24-.23-.4-.76-.4-.76-.19-.06-.64-.24-.99-.59-.04-.04-.07-.07-.1-.11l.54-.1Z"/>
    <path class="cls-2" d="m240.81,56.41c-.65-.3-1.97-.61-2.14-.55.13.04,1.27.65,2.13,1.02.23.1.44.18.64.26l1.29-.23c-.45,0-1.36-.24-1.92-.49m-2.68,1.05s.2.1.43.21l.39-.08c-.48-.15-.71-.18-.82-.13m-3.91.32c.27.09,1.15.47,1.48.37.17-.05.26-.06.28,0l.41-.07c0-.12-.01-.2-.01-.2.42-.4.31-1.06.31-1.06.47-.37.37-1.31.37-1.31.64-.53.27-1.21.27-1.21.68-.63.3-1.44.3-1.44.54-.83.12-1.38.12-1.38.41-.45.18-1.1.18-1.1.68-.6.26-1.49.26-1.49.68-.52.45-1.34.45-1.34.45-.26.33-.92.33-.92.57-.29.7-1.13.7-1.13,1.22-.37,1.41-1.75,1.41-1.75.74-.35.74-1.01.74-1.01.92-.47.59-1.5.59-1.5.64-.89-.27-1.8-.27-1.8.01-.27-.19-.53-.45-.79s-.99-.06-1.3.07c-.31.13-.27.2-.06.18.21-.02.27.01.7-.03.43-.04.33-.03.5.17.17.2.19.42.04.61-.15.19-.52.3-.72.32-.19.02-.25.13-.05.17.2.04.29,0,.64-.12.36-.12.52-.04.73.29.21.33-.05.81-.32,1.03-.28.23-1.29.29-1.46.29-.17,0-.29.09-.02.12s.73.03,1.08-.02c.35-.04.46-.15.58-.04s-.34.59-.6.75c-.26.16-1.06.25-1.27.23-.21-.02-.26.06-.03.16.23.1.13.05.47.04.34-.01.49-.16.67-.05.18.11-.23.45-.65.82-.42.37-1.23.33-1.41.3s-.26.07-.04.14c.22.07.28.07.65.07.36,0,.64-.12.7.06.06.19-.66.85-.97,1.02-.32.17-1,.09-1.24.1-.24.01-.24.07-.04.13.21.06.63.09.78.22.14.13,0,.48-.39.76-.38.27-.79.24-.96.33.17.02.16.03.42.05.26.02.4-.16.44-.01.04.14-.2.59-.34.69-.13.1-.58.23-.77.19-.19-.04-.25.12-.02.12.23,0,.29.03.59-.05.3-.08.29,0,.17.48-.12.49-1.03.69-1.22.73s-.24.1-.03.11c.21,0,.44.09.66.06.22-.04.19-.03.28.21.09.24-.32.79-.61.95-.29.15-.81.27-1.01.35.17.05.44,0,.83,0,.39,0,.43-.13.51-.02.08.11-.05.35-.22.66-.18.3-.63.5-.87.64.13.04.15-.02.33-.04.18-.01.44-.15.59-.05s-.02.43-.23.87c-.21.44-.96.42-1.29.56.13.07.2,0,.41.04.22.04.78-.05.93-.14.15-.09.18.02.18.35,0,.33-.26.59-.58.79-.31.2-1.02.22-1.28.21-.26,0-.25.12-.04.11.21,0,.58.07.95.02.37-.05.48-.22.6-.1.13.12.06.34-.13.66-.19.32-.45.36-.76.44-.3.08-.75-.04-1.01-.09-.26-.05-.19.02-.03.1.16.08.69.14,1.03.17.34.03.44-.14.49-.04.05.1.05.23-.12.56-.17.33-.3.38-.7.41-.4.02-.89-.08-1.08-.15-.19-.07-.26.07-.03.16.22.08,1.16.26,1.46.24.3-.02.16.13.08.47-.08.34-.56.44-.92.44-.36,0-.89-.2-1.07-.26-.18-.06-.33.04-.05.13m.22-13.53c.13-.06.39.05.37.3-.02.25.02.51-.4.88-.41.37-.46.31-.62.63.15-.02.31.08.25.35-.07.27-.12.69-.46.91-.35.22-.57.28-.75.3-.19.02-.1.18.02.19.12,0,.26.14.12.44-.14.31-.47.61-.51.81.1-.05.2.06.1.34-.1.28-.63.97-.82,1.09-.19.12-.17.2.01.15.18-.05.31-.06.26.19-.05.25-.12.89-.61,1.02-.49.13-.61.17-.82.19s-.3.15-.04.15c.26,0,.48-.05.55.03.06.08-.01.47-.25.67-.24.2-.79.53-1.04.57s-.23.15,0,.13c.22-.02.42-.03.43.06.01.09-.03.44-.28.69-.28.28-.5.46-.87.52-.37.06-.63.16-.37.18s.48-.01.51.06c.03.07.13.37-.43.66-.57.29-1.12.53-1.38.51-.26-.02-.28.12-.12.16.16.04.47.03.46.12,0,.09-.31.43-.77.62-.46.19-1.73,0-1.95-.13-.23-.14-.19-.03-.09.19m0,0c.1.21.47.71.95,1.25.24.27.7.76,1.21,1.32l3.19-.59s.04-.06.07-.1c0,0,.92.06,1.18-1.13,0,0,.74-.26.95-1.08,0,0,.73-.42.69-1.35,0,0,.53-.54.4-1.14,0,0,.72-.72.43-1.38,0,0,.52-.66.3-1.06,0,0,.62-.56.5-1.52,0,0,.41-.54.39-1.18,0,0,.66-.93.28-1.95,0,0,.9-.76.79-1.61,0,0,.72-.57.59-1.28,0,0,1.05-.67.8-1.55,0,0,1.45-.73.74-1.68,0,0,1.39-1.08-.29-1.35.12.09.49.43.37.71-.12.28-.47.59-.9.63-.43.04-.26.23-.09.21.18-.01.43-.06.51-.01.08.05.3.33.14.59-.15.27-1.07.81-1.27,1,.16-.03.4-.04.39.25-.01.29-.1.58-.49.76-.39.19-.38.14-.56.29.19.03.53.24.19.71-.34.47-.34.5-.65.63-.31.13-.38.15-.44.23.11,0,.33.11.57.02,0,0,.25.07-.02.54-.27.47-.63.69-.97.76-.34.07-.42.04-.22.1.2.06.52.08.56.4.04.31.04.91-.13,1.15-.17.24-.17.33-.46.5-.29.17-.48.2-.62.22.17.05.51.12.62.07.1-.05.04.24-.08.43-.12.18-.35.46-.55.48-.21.02-.33.02-.43.04.12.06.39.26.77.11,0,0,.16.03.02.45-.13.41-.22.71-.45.75-.22.04-.67-.02-.84.01.13.08.72.26.84.24.13-.02.09.12.03.25-.06.13-.18.55-.38.64-.2.08-.15.14-.53.08-.38-.06-.4-.05-.49-.02.11.08.25.24.58.24.33,0,.57-.06.49.19-.08.25-.25.72-.61.82-.36.1-.72.02-.87-.07-.14-.09-.19-.02-.02.09.17.11.72.36.86.34.15-.02.19.04.08.27-.1.23-.25.51-.55.6-.31.08-.69.06-.83.06.13.05.72.24.89.21.17-.03.18.14.08.25-.1.11-.36.58-.77.62-.42.04-.86-.25-1.07-.21.12.05.86.39,1.01.42.15.04.16.12.06.24-.1.12-.51.49-.78.5-.27.01-1.18-.32-1.35-.46-.16-.14-.14-.02-.02.09.12.11.8.56,1,.63.2.07.34.06.19.33-.16.27-.43.54-.96.48-.52-.06-1.2-.47-1.46-.5.1.09.43.4.77.57.34.16.56.18.58.27.02.1-.28.31-.69.35-.41.04-1.06.06-1.79-.4-.73-.45-.98-.59-1.66-1.35,0,0,.9.3,1.54-.08.64-.38.84-1.04.84-1.04,0,0,1.58-.51,1.45-1.52,0,0,1.11-.67,1.03-1.49,0,0,.94-.48,1.03-1.44,0,0,.97-.59.62-1.59,0,0,.89-.58.69-1.57,0,0,.48-.65.34-1.1,0,0,1.35-.58,1.05-1.85,0,0,1.19-.88.6-1.91m-2.61,1.21s-1.15,2.56-2.62,4.79c-1.47,2.22-3.73,4.38-3.73,4.38,0,0,1.78-1.05,3.92-3.86,1.92-2.51,2.43-5.31,2.43-5.31m-10.11,10.9c.69,1.15,1.45,1.55,1.45,1.55-.48-1.08-1.45-1.55-1.45-1.55m-9.51,6c-.06.09-.12.21-.21.33l.31-.05c.05-.11.1-.21.14-.26.13-.22-.08-.27-.24-.02m-3.07-.96s.11,1.28,1.15,1.12c0,0,.01.22.1.48l.47-.08c-.06-.09-.08-.2-.08-.31,0-.27.29-.88.46-1.06.17-.18.03-.26-.1-.13-.13.13-.24.46-.75.55-.51.09-.78-.34-.77-.64,0-.3.15-.7.31-.88.15-.18.07-.22-.1-.06-.17.16-.39.65-.76.6-.37-.06-.75-.4-.68-.73.07-.33.23-.72.38-.86.16-.15.08-.22-.1-.07s-.38.5-.67.4c-.29-.1-.74-.34-.65-.72.09-.38.12-.52.36-.75.23-.24.14-.34-.08-.21-.22.13-.29.49-.62.45-.32-.04-.84-.3-.61-.76.22-.46.19-.6.31-.73.13-.13.06-.18-.1-.06-.16.12-.39.44-.71.33-.32-.11-.77-.29-.74-.65.03-.35.27-.53.43-.69.15-.16.06-.19-.09-.08-.15.12-.35.5-.78.37-.43-.12-.7-.24-.64-.6.06-.36.27-.65.46-.76.19-.11.11-.15-.06-.08-.17.07-.34.46-.75.4-.4-.07-.97-.18-.97-.65,0-.47.31-.47.62-.63.31-.16.16-.22-.06-.11-.22.11-.64.44-.97.4-.34-.03-.88-.47-.75-.63.12-.16.52-.37.67-.49.15-.12.09-.2-.07-.08-.16.12-.42.3-.93.28-.52-.02-.71-.11-.71-.38,0-.27.21-.46.37-.58.16-.12.11-.26-.09-.09s-.5.51-.99.45c-.49-.05-.72-.17-.69-.49s.26-.42.41-.54c.15-.12.04-.13-.09-.09-.13.04-.56.41-.87.3-.31-.11-.62-.18-.53-.45.09-.27.36-.44.56-.59.2-.15.19-.2-.06-.08-.25.12-.66.44-1.06.42-.4-.02-1.06-.29-.79-.73.27-.44.52-.43.71-.51.2-.08.21-.17-.03-.12-.25.06-.65.29-1.03.14-.39-.15-.63-.59-.4-.88.22-.29.43-.3.7-.34.26-.04.17-.16-.07-.12-.23.04-.55.21-.93.02s-.68-.7-.39-1.07c.29-.36.51-.3.77-.36.26-.06.2-.17-.02-.13-.22.04-.54.14-.63-.17-.09-.3-.18-.62.17-.9.34-.29,0-.2-.19-.07s-.74.53-.34,1.23c0,0-.83,1.07.49,1.77,0,0-.4.97.87,1.39,0,0-.58,1.11,1.23,1.21,0,0,.22.75,1.18.68,0,0-.06,1.08,1.33.74,0,0,.23.76,1.07.71,0,0-.02.79,1.17.94,0,0,.1,1.05,1.36.99,0,0-.19.97,1.13.97,0,0,.03,1.16,1.13,1.08,0,0-.31,1.33,1.07,1.25,0,0-.2,1.26.9,1.25,0,0,.12,1.34,1.19,1.26m-.39,1.29c-.06.06-.44.41-.87.77l.3-.06c.34-.31.63-.58.68-.66.13-.2.01-.2-.12-.06m9.59-11.92c-.68.6-1.4.94-1.4.94-.15-1,.82-1.75,1.12-2.04.3-.29.7-.59.68-.64-.02-.06-.75.47-.75.47.12-.52.09-1.24.09-1.24,0,0,.65-.36,1.16-.45.51-.09,1.08.33,1.15.73.07.4-.05.7-.05.7-.57-.45-.84-.25-1.47.08-.62.33-1.23,1.2-1.44,1.49-.21.29-.09.39-.09.39.2-.12,1.62-1.39,1.89-1.6.27-.21.36-.3.36-.3-.05.45-.58.87-1.26,1.46m-1.05-1.57s.11.46-.35.72c0,0,.16-.31.02-.61,0,0,.14-.13.33-.11m-.7.86c-.44.16-.66-.17-.66-.17l.19-.14c.13.16.47.31.47.31m45.1-13.56c-.11-.28-.62-.32-1.39-.26l-.48.06h0c-.19.03-.42.06-.61.09h0c-1.34.22-3.38.61-4.18.83,0,0,1.14-1,1.93-1.58.36-.27.93-.59,1.42-.89,0,0,0,0,0,0,.25-.16.45-.28.77-.54.15-.13.23-.25.21-.35-.03-.11-.14-.17-.3-.21-.08-.01-.16-.03-.24-.03-.04,0-.08,0-.12,0-.05,0-.11,0-.17,0-.04,0-.07,0-.11,0,0,0,0,0,0,0-.22.01-.47.05-.76.1-.15.03-.29.05-.42.08-.78.18-4.37,1.26-5.69,1.83,0,0,.44-.63,1.03-1.1.59-.47,3-1.62,2.76-2.21-.24-.59-2.99.41-4.16.89-1.17.48-3.35,1.45-3.35,1.45,0,0,1.47-1.51,1.33-1.75-.14-.24-2.3.46-3.9,1.18-1.6.71-6.83,3.08-12.78,6.21-.43.23-.61.66-.76,1.08-.14.42-1.07,3.52-1.86,5.28-.79,1.76-2.18,3.75-4.2,5.55-2.02,1.8-3.18,2.45-3.49,2.5-.31.05-1.44-.68-2.34-1.55-.9-.87-1.2-1.13-1.39-1.8,0,0,1.13-.75,1.51-1.72,0,0,.33-.09.38.66,0,0,.59-.46.37-1.72-.21-1.26-1.7-.89-1.7-.89,0,0-.58.14-1.21.44,0,0-.21-.37-.64-.24-.43.13-.87.3-1.75,1.06-.88.77-1.5,1.38-1.84,1.73-.34.34.08.39.13.48.04.08,0,.71.02,1.9.02,1.19-.05,1.88-.05,1.88,0,0-2.37-.83-5.3-4.24-2.93-3.42-3.18-4.9-3.57-5.17-.39-.27-1.02-.57-3.63-.76-2.61-.2-6.09-.34-8.84-.16-2.75.17-5.51.61-5.51,1,0,.39,1.43.86,1.43.86,0,0-1.82.05-2.45.15-.63.11-1.33.41-1.38.76-.05.35.73.59,1.14.65.4.07,1.5.41,1.81.54,0,0-1.85.16-3.13.4l-.52.11-.65.16s0,0,0,.01c-.87.26-1.58.61-1.55,1.01.03.46.79.41,1.43.38h0c.41-.03.72,0,.72,0h0c.68.05,1.71.2,2.64.46,0,0-1.59.31-2.54.52l-.3.08h0s0,0,0,0c-.26.09-.49.2-.59.25h0c-.67.34-1.25.8-1.2,1.01.05.23.48.41,1.17.42,0,0,0,0,0,0l.88-.06c1.03-.1,2.31-.09,3.16.3,0,0-.68.24-1.37.73-.69.49-.85.81-.77,1,.08.2.44.27,1.16.11.73-.17,1.27-.24,1.86-.22.59.02.9.15,1.14.11,0,0-.1.2-.46.51-.35.32-.63.65-.2.71.43.06,1.68.1,2.5-.12.82-.21,1.19-.35,1.19-.35,0,0-.93,1.05-.7,1.39.22.34.93.22,1.51.11.58-.11.99-.32.99-.32,0,0,.22.42.59.52.36.1,1.48.1,1.59,0,0,0,.25.61.63.72.38.12.9.24,1.29-.02,0,0,.22.39.61.61.4.22.78.22.99.23,0,0,.22.51.47.66.25.15.75.27,1.05.23,0,0,.18.42.55.65.37.23.84.24.84.24,0,0,.13.33.35.57.22.25.97.47.97.47,0,0,.18.38.39.64s.95.55.95.55c0,0,.03.31.28.63l.54-.09c-.18-.15-.3-.33-.24-.5.13-.38.6-.48,1.11-.86.51-.39.77-.69.91-.88.13-.19-.03-.28-.17-.05-.14.24-1.34,1.3-1.98,1.34-.64.05-1.1-.34-1.05-.67.05-.32,1.78-1.35,2.01-1.59s.07-.24-.12-.1c-.19.14-1.89,1.48-2.5,1.2-.61-.28-.99-.62-.93-.79.06-.18.72-.3,1.34-.71.63-.41,1.11-.77,1.21-.96.1-.18.05-.22-.11-.09-.16.13-2.19,1.63-2.83,1.37-.65-.27-.87-.43-.77-.64.1-.21.73-.35,1.19-.65.46-.3,1.38-.85,1.54-1.01.15-.16,0-.21-.14-.11-.15.1-2.77,1.87-3.41,1.64-.64-.22-.87-.35-.79-.59.08-.24.8-.44,1.53-.88.73-.44,1.55-.95,1.67-1.08.13-.13.02-.27-.17-.12-.18.15-2.83,1.83-3.54,1.71-.71-.12-1.25-.32-1.14-.49.11-.17.57-.31,1.29-.79.72-.48,1.77-1.11,1.93-1.29.15-.18.05-.23-.12-.1-.17.13-3.39,2.2-4.04,2.07-.66-.13-1.2-.31-1.12-.55.08-.24,1.08-.59,1.74-.94.67-.35,1.79-.93,2.04-1.08.25-.15.29-.26-.12-.1-.41.16-4.33,2.15-4.97,1.95-.64-.2-1.03-.21-.92-.45.11-.24,4.73-2.33,5.11-2.65.29-.25.2-.31-.08-.11-.28.2-2.12,1.11-3.8,1.8-1.68.69-3.45,1.32-3.53,1.01-.08-.3,1.07-1.16,1.91-1.66.84-.5,3.95-1.84,4.28-2.02.33-.18.28-.32-.05-.13-.33.19-5.14,2.3-7.07,2.65-1.93.35-2.63.34-1.19-.43,1.44-.77,3.08-1.35,4.68-1.96,1.63-.62,2.15-.86,2.46-.99.31-.13.19-.24-.09-.11-.28.14-3.48,1.05-5.01,1.52-1.54.47-2.34.74-2.72.68-.39-.06-1.77-.02-2.47.14-.7.16-1.45.29-.7-.12.75-.41,2.86-1.4,4.09-1.68,1.24-.28,4.87-1.3,5.31-1.43.44-.14.08-.25-.11-.19-.19.06-6.73,1.54-7.51,1.73,0,0-1.34-.35-2.45-.45-1.1-.1-2.94.36-2.97.17-.03-.19.79-.6,1.79-.86,1-.26,9.3-1.74,9.99-1.86.69-.12.47-.26.03-.2-.44.06-4.37.64-5.02.77-.64.12-1.69.03-2.2-.1-.52-.12-2.19-.54-2.7-.53-.51.01-1.71.18-1.73-.04-.02-.22,1.53-.68,2.19-.78.66-.1,2.39-.33,3.73-.41,1.34-.09,4.3-.39,4.85-.42.55-.03.37-.15,0-.15-.38,0-3.92.21-4.5.15-.58-.05-1.56-.55-2.26-.72-.71-.17-1.36-.28-1.38-.43-.02-.15.84-.29,1.81-.35.97-.06,6.23-.17,6.55-.18.32,0,.36-.12-.01-.15-.37-.03-3.48.06-4.27-.29-.8-.35-1.31-.41-1.27-.57.03-.16,1.09-.35,2.67-.45,1.58-.1,3.6-.42,7-.28,3.4.14,5.85.42,6.33.75.48.33.84.84,1.28,1.61.45.77,1.98,2.97,3.07,4.16,1.09,1.19,3.25,3.21,5.55,4.2,0,0,.12,2.26.33,2.84,0,0-.77-.26-.94-.63,0,0-.91.09-1.16-.73,0,0-.84-.16-1.03-.99,0,0-1.05-.06-1.4-1.05,0,0-1.16-.24-1.31-1.31,0,0-1.39-.37-1.39-1.35,0,0-1.55-.07-1.56-1.59,0,0-1.66-.17-1.47-1.01,0,0-1.34.59-1.78-.91,0,0-1.82.2-1.64-1.41,0,0-1.37.03-1.59-1.5,0,0-.78,1.04,1.2,1.93,0,0,.28,1.42,1.84,1.52,0,0,.83,1.1,1.76,1.08,0,0,.74.75,1.49.82,0,0,.34,1.3,1.44,1.51,0,0,.58,1.22,1.47,1.38,0,0,.54,1.06,1.33,1.18,0,0,.44.92,1.42,1.18,0,0,.37.75.98.83,0,0,.67.94,1.4.81,0,0,.34.56,1.04.61,0,0,.2.75.32,1.11.12.36-.04,1-.4.93-.36-.08-.62-.18-.59-1.08,0,0-.08-.14-.08.06,0,.2-.13,1-.67.67-.54-.33-.52-.78-.15-1.15.09-.09-.02-.13-.1-.04-.08.09-.74.73-.98.44-.24-.29.01-.56.19-.76.18-.2,0-.12-.08-.05-.08.07-.77.64-1.21.23-.45-.41-.03-.89.28-1.13.31-.25.02-.15-.1-.04-.12.11-.94.78-1.33.36-.39-.42.29-1,.44-1.08.15-.09.06-.18-.07-.08-.13.1-.96.4-1.16.01-.2-.39.01-.83.34-1.02.33-.19-.05-.19-.1-.12-.05.07-.84.56-1.1.09s-.08-.68.09-.82c.17-.13,0-.2-.12-.1-.12.1-.71.33-.95.07-.24-.26.06-.75.2-.89.14-.14.03-.16-.1-.06-.13.1-.77.46-1.06.04-.3-.42-.03-.75.13-.87.16-.12.07-.19-.07-.08-.15.12-.83.44-1.2-.04-.37-.48-.02-.9.17-1.05.19-.15,0-.2-.12-.09-.12.11-.79.42-1.17.15-.38-.27-.38-.49-.3-.63.08-.14.05-.14-.1-.04-.15.1-.55.21-.83.02-.27-.19-.2-.46.21-.71.16-.1.12-.17-.08-.11-.2.06-1.15.4-1.5-.14-.35-.54-.14-.82.16-.92.3-.1.1-.15-.05-.11-.14.04-1.66.47-1.96-.08-.3-.55-.08-.92.34-1.04.42-.12.13-.13-.03-.1-.16.03-1.54.33-1.58-.5-.04-.84.26-.77.51-.81.25-.04.17-.15-.05-.14-.22,0-.91-.03-.93-.54-.02-.51.16-.77.31-.88.15-.12.1-.15-.12-.07s-1.15.51-.12,1.74c0,0-.5,1.16.87,1.69,0,0,.21,1.43,1.84,1.44,0,0,.59,1.15,1.49,1.05,0,0,.47.9,1.2.79,0,0,.15.52,1.1.7,0,0,.11.93,1.2.98,0,0,.12.82,1.06.99,0,0-.13.78.96.84,0,0,.06.82.75.88,0,0-.11.94.8,1.1,0,0,.05,1.02,1.07,1.06,0,0,.11.99,1.2.83,0,0,.4.75,1.12.64,0,0,.51.96,1.39.64,0,0,1.02.86,1.45-.15,0,0,.17.46.49,1.15l.75-.13c-.4-.73-.76-1.5-.97-2.23-.65-2.26-.9-3.99-.8-5.78.05-.95-.05-3.07-.1-3.3.06-.02.49-.51,1.47-1.27,1.11-.86,1.82-1.12,1.91-.95.09.17-.4.5-.62.63-.22.13-.88.4-1.16.62-.28.21-.98.81-1.23,1.1,0,0,.88-.62,1.11-.76,0,0,.65.64,1.3.2.65-.44.68-.81.63-1.25,0,0,.13-.05.13.22,0,.27-.03.47,0,.61,0,0-.55.47-.7.86-.15.39-.46.85-.06,1.63,0,0,.27-.35.51-.48l.54-.29s.54.97,1.63,2.07c1.09,1.1,1.91,1.7,2.14,1.81.23.11.84-.05,1.5-.43.66-.38,4.17-3.01,5.76-5.63,1.58-2.62,2.63-5.37,3.2-7.55,0,0,.03-.62.94-1.06.91-.44,5.01-2.86,7.84-4.2,2.82-1.33,6.64-2.87,7.25-2.94-.09.12-.32.64-1.47,1.32-1.15.68-4.26,2.24-6.04,2.93,0,0-.07.12.23,0,.3-.11,4.66-1.82,7.21-2.91,2.55-1.09,6.54-2.58,6.62-2.36s-1,.8-1.61,1.12c-.61.31-1.2.67-1.85,1.37-.65.7-1.01,1-2.15,1.46-1.14.46-6.4,2.58-6.51,2.77.14-.04,5.86-2.13,8.17-2.95,2.31-.82,7.48-2.46,7.53-2.17s-.97.61-1.86,1.26-1.79,1.45-2.5,1.76c-.7.31-.92.52-2.93,1.05-2.01.53-7.79,2.21-7.92,2.36.12-.02,7.29-1.72,10.2-2.41,2.92-.69,7.58-1.69,7.66-1.5.08.2-.75.55-1.68,1.02-.93.47-1.49.91-2.12,1.22-.63.3-1.6.72-3.33,1.03-1.73.31-10.54,1.9-10.76,1.97-.22.07-.16.12.02.1.18-.01,6.46-.98,9.3-1.42,2.84-.45,7.85-1.26,7.9-1.04.05.22-.56.38-.87.46-.32.08-1.1.27-1.62.53s-1.06.81-1.95,1.07c-.89.26-1.27.5-3.07.68-1.8.18-9.89,1.1-10.06,1.22.13,0,5.66-.36,8.25-.57,2.59-.21,5.39-.5,5.41-.21.02.28-.7.33-1.28.53-.58.2-.97.44-1.66.63-.69.19-.88.31-2.07.42-1.19.11-9.59.73-9.9.74s-.22.14,0,.13c.22,0,3.99.01,6.86-.14,2.87-.15,4.82-.24,4.86-.09.04.14-.5.45-1.02.76-.52.31.09.18-.52.31-.61.13-3.97.7-5.78.62s-4.93-.14-5.18-.14c-.26,0-.23.1-.01.12.22.02,3.68.33,5.27.4,1.6.06,2.43.1,3.15.09.72-.02,1.03-.04,1.09.1.05.14-.19.38-.8.74-.6.36-1.15.59-2.2.57-1.04-.02-5.48-.18-6.9-.31.17.05,2.63.46,4.82.66,2.19.19,3.31.14,3.33.24.02.1-.08.16-.42.39-.34.22-.59.64-1.26.69-.67.05-5.93-.16-6.59-.18-.24,0-.23.08,0,.09.23,0,2.52.44,4.07.49,1.55.06,2.92-.02,2.95.06.03.08-.16.38-.41.6-.25.22-.65.53-1.2.59-.55.06-5.79-.24-6.06-.25-.27-.01-.15.07-.02.09.14.02,5.65.58,5.88.6.23.02.39.07.26.23-.12.16-.46.83-1.09,1.03-.63.2-.86.18-2.12-.05-1.26-.23-3.38-.52-3.59-.55s-.21.08,0,.12c.2.04,1.62.33,2.84.64,1.21.31,2.18.48,2.29.6.11.12.07.42-.1.65-.17.23-.29.55-1.05.4-.76-.14-3.93-.94-4.14-1.04-.21-.1-.12.08-.03.11.1.03,1.58.72,2.48,1,.89.29,1.74.49,1.99.51.24.02.16.26.07.4-.09.12-.38.55-.68.69l1.09-.21c.2-.3.39-.69.38-1.07,0,0,.8-.79.8-1.58,0,0,.95-.35,1.67-1.99,0,0,1.14-.68,1.38-1.77,0,0,1.43-.71,1.3-1.67,0,0,2.23-1.16,2.07-1.91,0,0,2.79-1.48,2.75-2.07-.02-.37-.51-.32-.51-.32,0,0,1.33-.4,1.71-.79,0,0,2.44-.63,2.36-1.13-.08-.5-1.2-.41-1.2-.41,0,0,.82-.36,1.23-.8,0,0,.67-.37.91-.47.23-.1.47,0,1.12-.25.32-.12.66-.31.91-.53h0c.24-.22.32-.3.38-.43.06-.12.07-.14,0-.29-.1-.08-.29-.19-.54-.21-.88-.09-2.53.08-2.9.17,0,0,1.38-.79,2.47-1.39,0,0,0,0,0,0,.25-.14.72-.41,1.11-.63.61-.37.76-.58.67-.81"/>
  </g>
  <path class="cls-2" d="m206.19,36.59l.74-.75-1.04.17-.49-.93-.16,1.04-1.04.17.94.47-.15,1.04.74-.75.94.47-.49-.93Zm7.3-5.16l1.13-1.15-1.59.27-.74-1.43-.24,1.59-1.59.27,1.44.72-.24,1.59,1.13-1.15,1.44.72-.74-1.43Zm5.2-5.49l.74-.75-1.04.17-.49-.93-.16,1.04-1.04.17.94.47-.16,1.04.74-.75.94.47-.49-.93Zm5.9,8.73l.74-.75-1.04.17-.49-.93-.16,1.04-1.04.17.94.47-.16,1.04.74-.75.94.47-.49-.93Zm6.84-5.79l.74-.75-1.04.17-.49-.93-.16,1.04-1.04.17.94.47-.16,1.04.74-.75.94.47-.49-.93Z"/>
  <g>
    <path class="cls-2" d="m235.07,89.39c.27.31.42.74.45,1.3v.08h-3.23c.07-.58.26-1.04.56-1.36.3-.32.68-.48,1.12-.48s.83.15,1.1.46m1.47,4.07l-.67-.52c-.2.26-.44.47-.71.63-.27.16-.6.24-.99.24-.55,0-1-.2-1.36-.59-.36-.39-.54-.9-.56-1.54h4.37v-.46c0-1.03-.23-1.82-.7-2.37-.46-.55-1.12-.83-1.95-.83-.51,0-.99.14-1.43.43-.44.28-.78.68-1.02,1.18-.24.5-.37,1.07-.37,1.71v.2c0,.96.27,1.73.82,2.3.55.57,1.26.86,2.13.86,1.08,0,1.89-.41,2.43-1.25m-11.19-8.02h-1.1v9.15h1.1v-4.59c.15-.31.36-.56.63-.75.27-.19.58-.29.94-.29.44,0,.77.11.97.33.21.22.31.57.32,1.03v4.26h1.1v-4.26c-.01-1.54-.7-2.31-2.06-2.31-.78,0-1.42.3-1.91.9v-3.49Zm-6.73,7.77c-.31-.4-.46-.97-.46-1.72v-.21c0-.76.15-1.35.46-1.75.31-.4.74-.61,1.3-.61.42,0,.77.13,1.05.4.28.27.44.61.47,1.03h1.04c-.03-.69-.29-1.25-.77-1.68-.48-.43-1.08-.65-1.8-.65-.59,0-1.1.14-1.53.41-.43.27-.76.65-.99,1.14-.23.49-.35,1.05-.35,1.67v.19c0,1.02.26,1.82.78,2.4.52.59,1.22.88,2.09.88.44,0,.85-.1,1.24-.3.39-.2.7-.47.94-.8.23-.33.36-.69.38-1.05h-1.04c-.03.36-.19.65-.49.89-.29.24-.64.36-1.03.36-.57,0-1.01-.2-1.31-.6m-4.61.35c-.25.17-.59.25-1,.25-.45,0-.82-.11-1.09-.33-.28-.22-.42-.51-.44-.88h-1.1c0,.38.11.74.34,1.06.22.33.54.58.93.76.4.18.85.27,1.37.27.74,0,1.33-.17,1.79-.52.46-.35.69-.81.69-1.39,0-.34-.08-.64-.25-.88-.17-.24-.42-.45-.76-.62-.34-.17-.79-.32-1.34-.44-.55-.12-.93-.25-1.14-.39-.21-.13-.32-.34-.32-.6,0-.28.11-.51.34-.68.23-.18.54-.26.94-.26s.71.11.97.33c.26.22.38.48.38.78h1.11c0-.59-.23-1.07-.68-1.45-.45-.38-1.05-.57-1.78-.57s-1.27.18-1.71.55c-.45.36-.67.81-.67,1.34,0,.32.08.59.23.82s.4.43.73.6c.33.17.77.31,1.33.43.56.12.95.26,1.17.43.22.17.34.4.34.69,0,.28-.13.51-.38.68m-6.55-6.67c.11.12.27.18.49.18s.38-.06.49-.18c.11-.12.17-.27.17-.45s-.06-.33-.17-.45c-.11-.12-.27-.18-.49-.18s-.38.06-.49.18c-.11.12-.16.27-.16.45s.06.33.16.45m1.03,1.26h-1.1v6.45h1.1v-6.45Zm-7.19,1.44c.3-.42.72-.63,1.26-.63.68,0,1.18.31,1.52.92v2.94c-.33.63-.84.95-1.53.95-.54,0-.95-.21-1.25-.62-.3-.42-.45-.99-.45-1.71,0-.82.15-1.44.45-1.85m-.86,4.21c.47.61,1.08.91,1.83.91s1.36-.25,1.8-.76v.55c0,.55-.15.97-.45,1.28-.3.3-.72.45-1.25.45-.68,0-1.26-.29-1.73-.87l-.57.66c.23.34.57.62,1.02.82.44.2.9.3,1.36.3.83,0,1.5-.24,1.99-.72.49-.48.74-1.14.74-1.97v-6.29h-1.01l-.05.72c-.44-.56-1.05-.83-1.84-.83s-1.38.3-1.85.89c-.47.59-.7,1.39-.7,2.4s.23,1.88.7,2.48m-1.88-5.69c-.11-.06-.27-.08-.49-.08-.66,0-1.18.29-1.54.86l-.02-.74h-1.07v6.45h1.1v-4.57c.26-.62.75-.92,1.47-.92.2,0,.38.01.54.04v-1.02Zm-6.32,6.48h1.05v-6.45h-1.1v4.69c-.28.63-.84.94-1.68.94-.79,0-1.19-.49-1.19-1.46v-4.16h-1.1v4.19c0,.78.19,1.37.55,1.77.36.4.88.6,1.57.6.83,0,1.46-.25,1.89-.76l.02.64Zm-7.43-1.43c-.29.41-.71.61-1.23.61-.72,0-1.24-.34-1.58-1.01v-2.79c.32-.68.84-1.01,1.57-1.01.54,0,.96.2,1.25.61s.44.99.44,1.74c0,.82-.15,1.44-.44,1.85m1.54-1.82c0-1.03-.22-1.84-.67-2.43-.45-.59-1.06-.89-1.84-.89s-1.4.28-1.84.83v-3.41h-1.1v9.15h1.01l.05-.74c.45.58,1.07.86,1.89.86.76,0,1.37-.3,1.82-.9.45-.6.68-1.39.68-2.37v-.1Zm-12.66-3.2v6.45h1.1v-4.59c.15-.31.36-.56.63-.75.27-.19.58-.29.94-.29.44,0,.76.11.97.33.21.22.32.57.32,1.03v4.26h1.1v-4.26c-.01-1.54-.7-2.31-2.06-2.31-.79,0-1.44.31-1.93.93l-.04-.81h-1.04Zm-3.37,1.25c.27.31.42.74.45,1.3v.08h-3.23c.07-.58.26-1.04.56-1.36.3-.32.68-.48,1.12-.48s.83.15,1.1.46m1.47,4.07l-.67-.52c-.2.26-.44.47-.71.63-.27.16-.6.24-.99.24-.55,0-1-.2-1.36-.59-.35-.39-.54-.9-.56-1.54h4.37v-.46c0-1.03-.23-1.82-.7-2.37-.46-.55-1.12-.83-1.95-.83-.51,0-.99.14-1.43.43-.44.28-.78.68-1.02,1.18-.24.5-.37,1.07-.37,1.71v.2c0,.96.27,1.73.82,2.3.55.57,1.26.86,2.13.86,1.08,0,1.89-.41,2.43-1.25m-11.16-3.88c.3-.42.72-.63,1.26-.63.68,0,1.19.3,1.52.91v2.96c-.32.63-.83.94-1.53.94-.53,0-.95-.21-1.25-.62-.3-.41-.45-.98-.45-1.71,0-.82.15-1.44.45-1.85m-1.55,1.81c0,.98.23,1.78.71,2.39s1.08.92,1.83.92c.79,0,1.4-.27,1.84-.81l.05.69h1.01v-9.15h-1.1v3.36c-.44-.52-1.04-.77-1.79-.77s-1.37.3-1.84.9c-.47.6-.7,1.4-.7,2.39v.08Zm-6.92-3.25v6.45h1.1v-4.59c.15-.31.36-.56.63-.75.27-.19.58-.29.94-.29.44,0,.76.11.97.33.21.22.32.57.32,1.03v4.26h1.1v-4.26c-.01-1.54-.7-2.31-2.06-2.31-.79,0-1.44.31-1.93.93l-.04-.81h-1.04Zm-5.82,5.31c-.23-.2-.35-.47-.35-.81,0-.79.68-1.19,2.03-1.19h.86v1.32c-.14.29-.36.52-.67.7-.31.18-.64.27-.98.27s-.66-.1-.89-.29m3.87,1.13v-.09c-.15-.35-.23-.82-.23-1.41v-2.97c-.02-.65-.23-1.16-.66-1.53-.42-.37-1-.56-1.75-.56-.47,0-.9.09-1.29.26-.39.18-.7.41-.93.71-.23.3-.34.61-.34.93h1.11c0-.28.13-.52.4-.72.27-.2.6-.3.99-.3.45,0,.79.11,1.02.34.23.23.35.53.35.92v.51h-1.07c-.93,0-1.64.19-2.15.56s-.77.89-.77,1.56c0,.55.2,1.01.61,1.37.41.36.93.54,1.56.54.71,0,1.32-.27,1.83-.8.04.33.09.55.16.68h1.15Zm-6.62-6.48c-.11-.06-.27-.08-.49-.08-.66,0-1.18.29-1.54.86l-.02-.74h-1.07v6.45h1.1v-4.57c.26-.62.75-.92,1.47-.92.2,0,.38.01.54.04v-1.02Zm-9.89-1.26h1.69c.57,0,.99.11,1.27.33.28.22.42.56.42,1.04,0,.43-.15.77-.45,1.02-.3.25-.7.38-1.2.38h-1.73v-2.76Zm1.91,3.68c1.14,0,1.7.52,1.7,1.57,0,.48-.15.86-.46,1.14-.31.28-.73.41-1.26.41h-1.89v-3.12h1.91Zm-.04,4.06c.92,0,1.63-.22,2.14-.67.5-.45.76-1.06.76-1.83,0-.51-.14-.95-.41-1.31s-.64-.62-1.11-.75c.4-.17.71-.41.94-.72.23-.31.35-.67.35-1.08,0-.76-.24-1.34-.71-1.73-.47-.39-1.18-.58-2.12-.58h-2.84v8.67h3.01Zm-5.08-4.13h-2.91v.9h2.91v-.9Zm-9.83-2.31v6.45h1.1v-4.59c.15-.31.36-.56.63-.75.27-.19.58-.29.94-.29.44,0,.76.11.97.33.21.22.32.57.32,1.03v4.26h1.1v-4.26c-.01-1.54-.7-2.31-2.06-2.31-.79,0-1.44.31-1.93.93l-.04-.81h-1.04Zm-3.23-1.26c.11.12.27.18.48.18s.38-.06.49-.18c.11-.12.17-.27.17-.45s-.06-.33-.17-.45c-.11-.12-.27-.18-.49-.18s-.38.06-.48.18c-.11.12-.16.27-.16.45s.06.33.16.45m1.03,1.26h-1.1v6.45h1.1v-6.45Zm-3.35-2.7h-1.1v9.15h1.1v-9.15Zm-2.67,2.67c-.11-.06-.27-.08-.49-.08-.66,0-1.17.29-1.54.86l-.02-.74h-1.07v6.45h1.1v-4.57c.26-.62.75-.92,1.47-.92.19,0,.37.01.54.04v-1.02Zm-6.48,1.28c.27.31.42.74.45,1.3v.08h-3.23c.07-.58.26-1.04.56-1.36.3-.32.68-.48,1.12-.48s.83.15,1.1.46m1.47,4.07l-.67-.52c-.2.26-.44.47-.71.63-.27.16-.6.24-.99.24-.55,0-1-.2-1.36-.59-.36-.39-.54-.9-.56-1.54h4.37v-.46c0-1.03-.23-1.82-.7-2.37-.46-.55-1.12-.83-1.95-.83-.51,0-.99.14-1.43.43-.44.28-.78.68-1.02,1.18-.24.5-.37,1.07-.37,1.71v.2c0,.96.27,1.73.82,2.3.55.57,1.26.86,2.13.86,1.08,0,1.89-.41,2.43-1.25m-11.87-6.61h1.69c.57,0,.99.11,1.27.33.28.22.42.56.42,1.04,0,.43-.15.77-.45,1.02-.3.25-.7.38-1.2.38h-1.73v-2.76Zm1.91,3.68c1.14,0,1.7.52,1.7,1.57,0,.48-.15.86-.46,1.14-.31.28-.73.41-1.26.41h-1.89v-3.12h1.91Zm-.04,4.06c.92,0,1.63-.22,2.14-.67.5-.45.76-1.06.76-1.83,0-.51-.14-.95-.41-1.31-.27-.37-.64-.62-1.11-.75.4-.17.71-.41.94-.72.23-.31.34-.67.34-1.08,0-.76-.24-1.34-.71-1.73-.47-.39-1.18-.58-2.12-.58h-2.84v8.67h3.01Z"/>
    <path class="cls-2" d="m236.62,101.47h-2.08v5.4l-3.07-5.4h-2.09v8.67h2.09v-5.4l3.07,5.4h2.08v-8.67Zm-9.6,3.44h-3.29v-1.83h3.9v-1.61h-5.99v8.67h5.98v-1.61h-3.88v-2.07h3.29v-1.55Zm-6.89-3.44h-7.25v1.61h2.56v7.06h2.09v-7.06h2.6v-1.61Zm-8.88,3.61h-3.37v-2h3.71v-1.61h-5.8v8.67h2.09v-3.45h3.37v-1.61Zm-11.04-1.18l.94,3.01h-1.86l.93-3.01Zm1.94,6.24h2.25l-3.2-8.67h-1.97l-3.18,8.67h2.23l.5-1.62h2.87l.51,1.62Zm-7.5-8.67h-2.08v3.44h-3.08v-3.44h-2.09v8.67h2.09v-3.62h3.08v3.62h2.08v-8.67Zm-11.07,5.74c-.02.49-.15.85-.41,1.08-.25.23-.62.34-1.1.34-.57,0-.97-.2-1.2-.6s-.35-1.06-.35-1.98v-.61c.01-.85.14-1.47.38-1.86.24-.39.62-.58,1.14-.58s.89.11,1.14.34c.25.23.38.61.4,1.14h2.08c-.09-.97-.45-1.74-1.09-2.29-.64-.55-1.48-.83-2.54-.83-.73,0-1.37.17-1.93.52-.56.35-.98.84-1.28,1.48-.3.64-.44,1.38-.44,2.23v.43c0,1.35.33,2.4.98,3.15.66.74,1.55,1.11,2.69,1.11.69,0,1.31-.13,1.84-.38.54-.25.96-.61,1.25-1.07.3-.46.46-1,.49-1.6h-2.08Zm-9.06,1.26c-.2.15-.47.22-.82.22-.54,0-.93-.11-1.17-.33s-.36-.56-.36-1.03h-2.1c0,.57.14,1.08.43,1.52.29.44.72.78,1.29,1.04s1.21.38,1.91.38c1,0,1.78-.22,2.35-.65.57-.43.86-1.03.86-1.79,0-.95-.47-1.69-1.41-2.23-.38-.22-.88-.43-1.48-.62-.6-.19-1.02-.38-1.26-.56-.24-.18-.36-.38-.36-.6,0-.25.11-.46.33-.63.22-.17.51-.25.88-.25s.66.1.88.29c.22.2.32.47.32.82h2.08c0-.53-.14-1-.41-1.41-.27-.41-.66-.73-1.15-.95-.49-.22-1.05-.33-1.68-.33s-1.22.1-1.73.31c-.51.2-.91.49-1.19.86-.28.37-.42.79-.42,1.27,0,.96.56,1.72,1.68,2.27.35.17.79.35,1.33.53.54.18.92.36,1.14.53.22.17.33.41.33.71,0,.27-.1.48-.3.63m-6.18-7h-2.08v5.4l-3.07-5.4h-2.09v8.67h2.09v-5.4l3.07,5.4h2.08v-8.67Zm-9.6,3.44h-3.29v-1.83h3.9v-1.61h-5.99v8.67h5.98v-1.61h-3.88v-2.07h3.29v-1.55Zm-9.6,3.55c-.2.15-.47.22-.82.22-.54,0-.93-.11-1.17-.33s-.36-.56-.36-1.03h-2.1c0,.57.14,1.08.43,1.52.29.44.72.78,1.29,1.04s1.21.38,1.91.38c1,0,1.78-.22,2.35-.65.57-.43.86-1.03.86-1.79,0-.95-.47-1.69-1.41-2.23-.39-.22-.88-.43-1.48-.62-.6-.19-1.02-.38-1.26-.56-.24-.18-.36-.38-.36-.6,0-.25.11-.46.32-.63.22-.17.51-.25.88-.25s.66.1.88.29c.22.2.33.47.33.82h2.08c0-.53-.14-1-.41-1.41-.27-.41-.66-.73-1.15-.95-.49-.22-1.05-.33-1.68-.33s-1.22.1-1.73.31c-.51.2-.91.49-1.19.86-.28.37-.42.79-.42,1.27,0,.96.56,1.72,1.69,2.27.34.17.79.35,1.33.53.54.18.92.36,1.14.53.22.17.32.41.32.71,0,.27-.1.48-.3.63m-8.31,0c-.2.15-.47.22-.82.22-.54,0-.93-.11-1.17-.33-.24-.22-.36-.56-.36-1.03h-2.1c0,.57.14,1.08.43,1.52.29.44.72.78,1.29,1.04s1.21.38,1.91.38c1,0,1.78-.22,2.35-.65.57-.43.86-1.03.86-1.79,0-.95-.47-1.69-1.41-2.23-.39-.22-.88-.43-1.48-.62-.6-.19-1.02-.38-1.26-.56-.24-.18-.36-.38-.36-.6,0-.25.11-.46.33-.63.22-.17.51-.25.88-.25s.66.1.88.29c.22.2.32.47.32.82h2.08c0-.53-.14-1-.41-1.41-.27-.41-.66-.73-1.15-.95-.49-.22-1.05-.33-1.68-.33s-1.22.1-1.73.31c-.51.2-.91.49-1.19.86-.28.37-.42.79-.42,1.27,0,.96.56,1.72,1.68,2.27.35.17.79.35,1.33.53.54.18.92.36,1.14.53.22.17.33.41.33.71,0,.27-.1.48-.3.63m-6.26-7h-2.08v8.67h2.08v-8.67Zm-7.91,0h-1.78l-1.19,5.44-1-5.44h-2.08l1.85,8.67h2.16l1.14-4.94,1.16,4.94h2.17l1.84-8.67h-2.07l-1,5.44-1.21-5.44Zm-15.64,1.61h1.32c.39,0,.69.11.89.32.2.21.3.51.3.88s-.1.67-.3.87c-.2.21-.5.31-.9.31h-1.32v-2.39Zm2.66,7.06h2.24v-.09l-1.81-3.5c.52-.25.9-.57,1.15-.96.24-.4.37-.9.37-1.5,0-.83-.29-1.48-.87-1.93-.58-.46-1.38-.68-2.41-.68h-3.41v8.67h2.09v-3.07h1.13l1.53,3.07Zm-7.11-5.23h-3.29v-1.83h3.9v-1.61h-5.99v8.67h5.98v-1.61h-3.88v-2.07h3.29v-1.55Zm-11.17-1.83c.62,0,1.08.21,1.41.64.32.43.48,1.06.48,1.89v.38c0,.84-.16,1.48-.48,1.9-.32.43-.78.64-1.38.64h-.73v-5.45h.7Zm.06,7.06c.75,0,1.43-.18,2.04-.54.61-.36,1.08-.85,1.42-1.48.34-.63.5-1.34.5-2.13v-.4c0-.79-.18-1.5-.52-2.13-.34-.63-.82-1.12-1.43-1.47-.61-.35-1.3-.52-2.07-.52h-2.79v8.67h2.85Zm-8.56-5.23h-3.29v-1.83h3.9v-1.61h-5.99v8.67h5.97v-1.61h-3.88v-2.07h3.29v-1.55Zm-7.56-3.44h-2.08v8.67h2.08v-8.67Zm-13.64,0v8.67h2.09v-2.03l-.2-4.15,2.1,6.18h1.38l2.1-6.17-.2,4.15v2.03h2.1v-8.67h-2.75l-1.93,6.03-1.94-6.03h-2.75Zm-2.36,3.44h-3.29v-1.83h3.9v-1.61h-5.99v8.67h5.97v-1.61h-3.88v-2.07h3.29v-1.55Zm-11.17-1.83c.61,0,1.08.21,1.41.64.32.43.48,1.06.48,1.89v.38c0,.84-.16,1.48-.48,1.9-.32.43-.78.64-1.38.64h-.73v-5.45h.7Zm.06,7.06c.75,0,1.43-.18,2.04-.54.61-.36,1.08-.85,1.42-1.48.34-.63.5-1.34.5-2.13v-.4c0-.79-.18-1.5-.52-2.13-.34-.63-.82-1.12-1.43-1.47-.61-.35-1.3-.52-2.07-.52h-2.79v8.67h2.85Zm-8.43-6.24l.94,3.01h-1.86l.93-3.01Zm1.94,6.24h2.25l-3.2-8.67h-1.97l-3.18,8.67h2.23l.5-1.62h2.87l.51,1.62Zm-9.57,0h2.48l-2.93-4.84,2.93-3.84h-2.59l-1.87,2.72-.73,1.1v-3.82h-2.09v8.67h2.09v-2.29l.86-.94,1.85,3.23Zm-10.37-6.24l.94,3.01h-1.86l.93-3.01Zm1.94,6.24h2.25l-3.2-8.67h-1.97l-3.18,8.67h2.23l.5-1.62h2.87l.51,1.62Z"/>
  </g>
  <rect class="cls-1" x="247.81" y="76.8" width="2.27" height="43.83" rx=".28" ry=".28"/>
</svg>